<svg width="26px" height="26px" version="1.1" viewBox="0 0 26 26" xmlns="http://www.w3.org/2000/svg"> <!-- Generator: Sketch 51 (57462) - http://www.bohemiancoding.com/sketch --> <title>cloud-drizzle</title> <desc>Created with Sketch.</desc> <g id="Final" fill="none" fill-rule="evenodd"> <g id="v1-2-1-home-dashboard" transform="translate(-212 -365)"> <g id="status" transform="translate(39 195)"> <g id="Group" transform="translate(1 40)"> <g id="Group-2" transform="translate(-15 -596)"> <g id="Group-3-Copy" transform="translate(120 699)"> <g id="Group-4" transform="translate(67 27)"> <g id="cloud-drizzle" transform="translate(1 2)" stroke="#333" stroke-linecap="round" stroke-linejoin="round" stroke-width="3"> <path id="Shape" d="m14 18v2"/> <path id="Shape" d="m14 11v2"/> <path id="Shape" d="m9 20v2"/> <path id="Shape" d="m9 13v2"/> <path id="Shape" d="m20 15.58c2.1667-0.94894 3.372-3.2863 2.8886-5.6018-0.4834-2.3155-2.5232-3.9754-4.8886-3.9782h-1.26c-0.87041-3.3705-3.8205-5.7913-7.2961-5.9871-3.4756-0.19571-6.6788 1.8786-7.9221 5.1301-1.2433 3.2515-0.24124 6.9338 2.4783 9.1069"/> </g> </g> </g> </g> </g> </g> </g> </g>
</svg>