<svg width="9px" height="14px" version="1.1" viewBox="0 0 9 14" xmlns="http://www.w3.org/2000/svg" xmlns:xlink="http://www.w3.org/1999/xlink"> <!-- Generator: Sketch 51 (57462) - http://www.bohemiancoding.com/sketch --> <title>Icons / Arrow Right / M Copy@2x</title> <desc>Created with Sketch.</desc> <defs> <path id="path-1" d="m7.5 11.727c-0.38627 0-0.6235-0.15457-0.93525-0.48711l-5.387-5.7461c-0.32035-0.34171-0.32035-0.89573 0-1.2374 0.32035-0.34171 0.83975-0.34171 1.1601 0l5.1621 5.5063 5.1621-5.5063c0.32035-0.34171 0.83975-0.34171 1.1601 0 0.32035 0.34171 0.32035 0.89573 0 1.2374 0 0-3.5785 3.8171-5.3678 5.7257-0.31814 0.33935-0.56815 0.50755-0.95442 0.50755z"/> </defs> <g id="Final" fill="none" fill-rule="evenodd"> <g id="v1-3-1-home-dashboard-footer" transform="translate(-1283 -608)"> <rect width="1366" height="829" fill="#none"/> <g id="favorites" transform="translate(40 595)"> <g id="Icons-/-Arrow-Right-/-M-Copy" transform="translate(1247.5 20) scale(-1 1) translate(-7.5 -8)"> <g id="Direct-/-Icons-/-Arrow-Right-/-M"> <rect id="box" width="15" height="16"/> <mask id="mask-2" fill="white"> <use xlink:href="#path-1"/> </mask> <g id="Color-/-Black" fill="#333" mask="url(#mask-2)"> <g id="#333333" transform="translate(-76.875 -57)"> <polygon points="0 0 169 0 169 130 0 130"/> </g> </g> </g> </g> </g> </g> </g>
</svg>