<svg width="16px" height="14px" version="1.1" viewBox="0 0 16 14" xmlns="http://www.w3.org/2000/svg" xmlns:xlink="http://www.w3.org/1999/xlink"> <!-- Generator: Sketch 51 (57462) - http://www.bohemiancoding.com/sketch --> <title>icon_list_m</title> <desc>Created with Sketch.</desc> <defs> <path id="path-1" d="m0 3.3263c0-0.5484 0.44463-0.99297 1.0009-0.99297h13.998c0.55277 0 1.0009 0.44035 1.0009 0.99297v0.68073c0 0.5484-0.44463 0.99297-1.0009 0.99297h-13.998c-0.55277 0-1.0009-0.44035-1.0009-0.99297v-0.68073zm0 5.3333c0-0.5484 0.44463-0.99297 1.0009-0.99297h13.998c0.55277 0 1.0009 0.44035 1.0009 0.99297v0.68073c0 0.5484-0.44463 0.99297-1.0009 0.99297h-13.998c-0.55277 0-1.0009-0.44035-1.0009-0.99297v-0.68073zm0 5.3333c0-0.5484 0.44463-0.99297 1.0009-0.99297h13.998c0.55277 0 1.0009 0.44035 1.0009 0.99297v0.68073c0 0.5484-0.44463 0.99297-1.0009 0.99297h-13.998c-0.55277 0-1.0009-0.44035-1.0009-0.99297v-0.68073z"/> </defs> <g id="Final" fill="none" fill-rule="evenodd"> <g id="v1-1-1-mobile-home" transform="translate(-339 -70)"> <g id="Direct-/-Icons-/-List-/-M" transform="translate(339 68)"> <mask id="mask-2" fill="white"> <use xlink:href="#path-1"/> </mask> <use id="icon_list_m" fill="#333333" xlink:href="#path-1"/> </g> </g> </g>
</svg>